#!OML:ASF H:\Terrain\Patient Classification 1\Walking\liu\liu.ASF
:FULLY-SPECIFIED
:DEGREES
33
root 7.90033 15.8495 -34.566 8.43006 -6.26247 -6.48403
lowerback -4.1611 2.10945 2.63148
upperback 0.829255 2.5533 3.84552
thorax 3.12915 1.28353 2.6665
lowerneck -23.0141 -4.93726 -12.3547
upperneck 20.3702 -5.78743 12.4916
head 11.1608 -2.0915 5.72987
rclavicle -3.04638e-014 -1.19271e-015
rhumerus -23.7316 25.7712 -83.8633
rradius 48.3722
rwrist -21.3869
rhand -33.0794 -24.4525
rfingers 7.12502
rthumb -6.29084 -54.339
lclavicle -3.04638e-014 -1.19271e-015
lhumerus -54.7045 1.76299 83.5631
lradius 20.6966
lwrist -3.94661
lhand -8.10351 -21.4191
lfingers 7.12502
lthumb 17.8092 7.78545
rfemur 16.1329 3.76836 29.2229
rtibia 5.55857
rfoot -0.14341 6.82277
rtoes -15.6487
lfemur -40.9431 3.0109 -14.6763
ltibia 24.2659
lfoot -2.93969 9.52234
ltoes -7.01395
34
root 7.91904 15.8439 -34.3536 8.39389 -6.09186 -6.34168
lowerback -4.155 2.0378 2.41813
upperback 0.769482 2.47171 3.87201
thorax 3.05555 1.23903 2.80545
lowerneck -22.996 -4.81488 -11.9344
upperneck 20.4532 -5.68828 12.1701
head 11.1478 -2.0514 5.55303
rclavicle 6.80837e-015 1.11319e-014
rhumerus -24.2687 25.3161 -83.9232
rradius 48.2277
rwrist -20.8683
rhand -32.8056 -23.587
rfingers 7.12502
rthumb -6.02655 -53.4813
lclavicle 6.80837e-015 1.11319e-014
lhumerus -54.5695 2.24351 83.1584
lradius 20.3539
lwrist -4.54619
lhand -8.39852 -21.6967
lfingers 7.12502
lthumb 17.5254 7.53333
rfemur 15.4634 3.58359 28.9002
rtibia 8.41218
rfoot -0.70586 6.79103
rtoes -16.0926
lfemur -41.0514 3.54783 -15.2768
ltibia 25.5608
lfoot -1.69547 8.67988
ltoes -7.37753
35
root 7.93255 15.8535 -34.1449 8.33216 -6.03276 -5.78616
lowerback -4.25346 1.97622 1.80839
upperback 0.787628 2.42262 3.7098
thorax 3.11211 1.20545 2.98003
lowerneck -23.0909 -4.97097 -12.4082
upperneck 20.5671 -5.84372 12.5612
head 11.2614 -2.1111 5.76503
rclavicle 3.0265e-014 7.95139e-015
rhumerus -24.4873 24.8038 -84.1091
rradius 47.8541
rwrist -20.5077
rhand -32.756 -24.7005
rfingers 7.12502
rthumb -5.97867 -54.5962
lclavicle 3.0265e-014 7.95139e-015
lhumerus -54.4217 2.21446 83.0714
lradius 20.2676
lwrist -4.37482
lhand -8.83881 -21.5873
lfingers 7.12502
lthumb 17.1016 7.68005
rfemur 14.7531 3.45489 28.1215
rtibia 11.3174
rfoot 0.269792 7.07491
rtoes -17.1652
lfemur -40.9656 3.73655 -16.1065
ltibia 26.8341
lfoot -1.15265 8.04141
ltoes -8.86889
36
root 7.94501 15.8658 -33.9349 8.25438 -5.98518 -4.95764
lowerback -4.29771 1.93346 0.903371
upperback 0.757382 2.42245 3.48034
thorax 3.0773 1.19212 3.25048
lowerneck -23.1934 -5.03648 -12.4694
upperneck 20.773 -5.93147 12.5987
head 11.3745 -2.1486 5.78421
rclavicle -9.44227e-015 -8.74653e-015
rhumerus -24.8596 24.1745 -84.2409
rradius 47.547
rwrist -20.3076
rhand -32.3529 -25.9339
rfingers 7.12502
rthumb -5.58949 -55.8402
lclavicle -9.44227e-015 -8.74653e-015
lhumerus -54.4083 1.88825 83.2416
lradius 20.3938
lwrist -3.88145
lhand -9.17245 -21.1245
lfingers 7.12502
lthumb 16.7804 8.17032
rfemur 13.9892 3.32754 27.0435
rtibia 13.9502
rfoot 1.49291 6.76816
rtoes -14.3905
lfemur -40.9087 3.76514 -17.1954
ltibia 28.1531
lfoot -1.18769 7.47056
ltoes -9.51544
37
root 7.96342 15.8614 -33.7263 8.14861 -5.72035 -4.72664
lowerback -4.15639 1.87606 0.656673
upperback 0.679729 2.3669 3.45192
thorax 2.91134 1.16229 3.34758
lowerneck -23.0657 -5.1141 -12.6446
upperneck 20.7026 -5.985 12.5898
head 11.3375 -2.1922 5.79814
rclavicle -3.04141e-014 -1.98785e-015
rhumerus -25.5034 23.6687 -84.3343
rradius 47.3975
rwrist -20.411
rhand -31.9169 -24.7447
rfingers 7.12502
rthumb -5.16854 -54.6616
lclavicle -3.04141e-014 -1.98785e-015
lhumerus -54.2017 1.725 83.2906
lradius 20.3123
lwrist -4.04067
lhand -8.8671 -20.8731
lfingers 7.12502
lthumb 17.0744 8.39657
rfemur 13.2136 2.63704 26.508
rtibia 16.6014
rfoot 3.04848 6.72817
rtoes -15.0828
lfemur -40.8712 3.8823 -17.716
ltibia 29.3062
lfoot -1.24291 6.70655
ltoes -8.07785
38
root 7.98839 15.8476 -33.518 7.89784 -5.58474 -4.7162
lowerback -3.88229 1.80701 0.748851
upperback 0.630439 2.27965 3.43603
thorax 2.71505 1.1221 3.2612
lowerneck -22.5016 -5.07419 -12.5492
upperneck 20.2842 -5.94194 12.3962
head 11.0581 -2.20455 5.69477
rclavicle 1.04362e-015 1.07344e-014
rhumerus -26.2203 23.3905 -84.6207
rradius 47.2474
rwrist -20.4341
rhand -31.8839 -23.8226
rfingers 7.12502
rthumb -5.13659 -53.7404
lclavicle 1.04362e-015 1.07344e-014
lhumerus -53.872 1.90227 83.0517
lradius 19.9623
lwrist -4.44588
lhand -8.74896 -21.0425
lfingers 7.12502
lthumb 17.1881 8.21732
rfemur 12.4827 1.65598 26.0859
rtibia 19.3174
rfoot 4.97504 6.78664
rtoes -16.1303
lfemur -40.634 4.14399 -18.0248
ltibia 30.3747
lfoot -1.10023 5.99556
ltoes -5.124
39
root 8.01198 15.8445 -33.3054 7.74646 -5.64779 -4.44557
lowerback -3.54775 1.80704 0.647569
upperback 0.390369 2.30603 3.24395
thorax 2.28197 1.1395 3.10057
lowerneck -21.9464 -5.03056 -12.0238
upperneck 20.1161 -5.97253 11.8561
head 10.8578 -2.25677 5.38442
rclavicle 1.48095e-014 -2.18663e-014
rhumerus -27.2625 22.9279 -85.1375
rradius 47.1166
rwrist -20.3579
rhand -31.9712 -24.3164
rfingers 7.12502
rthumb -5.2209 -54.232
lclavicle 1.48095e-014 -2.18663e-014
lhumerus -53.8331 2.16512 82.4393
lradius 19.6245
lwrist -5.00305
lhand -8.76926 -21.5562
lfingers 7.12502
lthumb 17.1685 7.70532
rfemur 11.639 0.797791 25.3304
rtibia 21.8438
rfoot 7.25097 6.58859
rtoes -16.6665
lfemur -40.4005 4.40056 -18.5914
ltibia 31.5319
lfoot -1.28865 5.6007
ltoes -2.54792
40
root 8.03347 15.8504 -33.096 7.82817 -5.46994 -4.18924
lowerback -4.03379 1.85123 0.547756
upperback 0.475026 2.36024 3.03522
thorax 2.64411 1.16352 2.96547
lowerneck -21.8476 -5.12342 -11.842
upperneck 20.0617 -6.16318 11.8193
head 10.8387 -2.33636 5.30548
rclavicle -3.79182e-014 6.36111e-015
rhumerus -27.5721 21.983 -85.2483
rradius 46.7207
rwrist -20.2738
rhand -32.4948 -26.7945
rfingers 7.12502
rthumb -5.72651 -56.6971
lclavicle -3.79182e-014 6.36111e-015
lhumerus -53.2382 1.90539 82.1993
lradius 19.6796
lwrist -5.41648
lhand -8.34669 -21.5494
lfingers 7.12502
lthumb 17.5752 7.67619
rfemur 10.7047 0.306811 24.7153
rtibia 24.3528
rfoot 9.21137 6.14246
rtoes -15.0962
lfemur -40.4155 4.50504 -19.1722
ltibia 32.6974
lfoot -1.72392 5.14114
ltoes -0.663251
41
root 8.05896 15.8437 -32.8954 7.85167 -5.1176 -4.0652
lowerback -3.99224 1.81561 0.574189
upperback 0.235371 2.32217 2.91424
thorax 2.38155 1.1486 2.81506
lowerneck -21.7863 -5.06902 -11.9653
upperneck 20.6482 -6.21408 12.2353
head 11.0712 -2.32251 5.49926
rclavicle -5.2181e-015 -2.10712e-014
rhumerus -28.4556 21.0415 -85.5067
rradius 46.3434
rwrist -19.9765
rhand -32.9478 -30.555
rfingers 7.12502
rthumb -6.16379 -60.4453
lclavicle -5.2181e-015 -2.10712e-014
lhumerus -53.2016 1.43953 82.243
lradius 19.9291
lwrist -5.57226
lhand -8.12402 -21.2189
lfingers 7.12502
lthumb 17.7895 7.98735
rfemur 9.83099 -0.221394 24.3238
rtibia 27.1017
rfoot 10.4529 5.63027
rtoes -12.0381
lfemur -40.389 4.58903 -19.6561
ltibia 33.7029
lfoot -1.91865 4.47973
ltoes 1.2663
42
root 8.08736 15.8334 -32.7004 7.61159 -5.07873 -3.70621
lowerback -3.57724 1.72568 0.325887
upperback 0.178196 2.22523 2.87078
thorax 2.08627 1.10001 2.88685
lowerneck -22.2651 -5.01651 -12.2342
upperneck 21.2105 -6.10922 12.4838
head 11.3754 -2.25314 5.68348
rclavicle 3.04141e-014 2.3059e-014
rhumerus -29.1446 20.7363 -85.6227
rradius 46.1955
rwrist -19.8903
rhand -32.7234 -30.4557
rfingers 7.12502
rthumb -5.94715 -60.3522
lclavicle 3.04141e-014 2.3059e-014
lhumerus -52.7916 1.66932 82.2303
lradius 19.8405
lwrist -5.84164
lhand -8.129 -21.4696
lfingers 7.12502
lthumb 17.7847 7.73709
rfemur 8.9675 -0.812372 23.6041
rtibia 30.0945
rfoot 11.4597 5.07759
rtoes -9.16215
lfemur -39.9151 4.74909 -20.3135
ltibia 34.4672
lfoot -2.37221 4.07403
ltoes 2.89531
43
root 8.1157 15.8504 -32.5051 7.39596 -5.19733 -3.06924
lowerback -3.34955 1.65741 -0.203713
upperback 0.268253 2.16105 2.73407
thorax 2.03976 1.06287 3.03387
lowerneck -22.5824 -5.09484 -12.5052
upperneck 21.1722 -6.09988 12.5461
head 11.4322 -2.25434 5.75547
rclavicle -3.38928e-014 -3.18055e-014
rhumerus -29.5001 20.5156 -85.6675
rradius 46.0375
rwrist -20.0925
rhand -32.5504 -27.6893
rfingers 7.12502
rthumb -5.78012 -57.5905
lclavicle -3.38928e-014 -3.18055e-014
lhumerus -52.1824 1.33655 82.7569
lradius 20.033
lwrist -5.32787
lhand -8.28781 -21.6449
lfingers 7.12502
lthumb 17.6319 7.5756
rfemur 7.74109 -1.23994 22.5674
rtibia 33.3406
rfoot 12.6481 4.78783
rtoes -7.29304
lfemur -39.173 4.71266 -21.1481
ltibia 34.9092
lfoot -3.15279 4.04718
ltoes 3.74036
44
root 8.14328 15.8835 -32.305 7.35409 -5.2957 -2.31207
lowerback -3.44698 1.59607 -0.861427
upperback 0.30709 2.10978 2.511
thorax 2.12176 1.02999 3.17525
lowerneck -22.5881 -5.12617 -12.5355
upperneck 21.0109 -6.10123 12.4842
head 11.3716 -2.26442 5.72934
rclavicle -2.48978e-014 -2.78299e-015
rhumerus -29.8057 20.0142 -85.7649
rradius 45.7778
rwrist -20.2749
rhand -32.3043 -26.2183
rfingers 7.12502
rthumb -5.54256 -56.1258
lclavicle -2.48978e-014 -2.78299e-015
lhumerus -51.7321 0.55394 83.5114
lradius 20.5168
lwrist -4.47355
lhand -8.69102 -21.216
lfingers 7.12502
lthumb 17.2438 8.03889
rfemur 6.13342 -1.58785 21.4547
rtibia 36.8322
rfoot 13.7981 4.47181
rtoes -6.82819
lfemur -38.3937 4.64723 -22.1371
ltibia 34.9871
lfoot -3.90111 3.96378
ltoes 3.32465
45
root 8.16937 15.9067 -32.1106 7.27132 -5.44197 -1.47834
lowerback -3.45437 1.53594 -1.57986
upperback 0.309878 2.06491 2.28073
thorax 2.11475 1.00074 3.33983
lowerneck -22.5211 -5.08002 -12.415
upperneck 20.9259 -6.01277 12.2415
head 11.2998 -2.24533 5.62532
rclavicle 2.20651e-014 -1.59028e-014
rhumerus -30.2778 19.5639 -85.9396
rradius 45.6466
rwrist -20.5018
rhand -31.9069 -26.9538
rfingers 7.12502
rthumb -5.15887 -56.871
lclavicle 2.20651e-014 -1.59028e-014
lhumerus -51.032 0.571621 83.603
lradius 20.3976
lwrist -4.3963
lhand -8.96441 -21.4619
lfingers 7.12502
lthumb 16.9807 7.81588
rfemur 4.45588 -1.84494 20.3256
rtibia 40.4234
rfoot 14.3718 3.86296
rtoes -8.44632
lfemur -37.4758 4.63144 -23.1954
ltibia 34.7612
lfoot -4.57912 3.84662
ltoes 2.88584
46
root 8.19107 15.9251 -31.9272 7.05558 -5.59141 -0.581696
lowerback -3.07376 1.47218 -2.48447
upperback 0.181919 2.01513 2.15304
thorax 1.74681 0.9752 3.69983
lowerneck -22.3424 -5.03912 -12.6188
upperneck 20.9742 -5.87023 12.0996
head 11.2638 -2.2204 5.63104
rclavicle 2.33572e-014 2.38542e-015
rhumerus -31.1116 19.3967 -86.0719
rradius 45.6399
rwrist -20.8363
rhand -31.7452 -28.7053
rfingers 7.12502
rthumb -5.00273 -58.6262
lclavicle 2.33572e-014 2.38542e-015
lhumerus -50.4693 0.874519 83.657
lradius 20.1039
lwrist -4.63213
lhand -9.22623 -22.3639
lfingers 7.12502
lthumb 16.7287 6.93534
rfemur 2.84234 -2.0333 19.1914
rtibia 43.966
rfoot 15.03 3.03619
rtoes -8.74711
lfemur -36.343 4.5726 -24.2649
ltibia 34.343
lfoot -5.28678 3.77186
ltoes 2.72608
47
root 8.21189 15.9578 -31.7419 6.89478 -5.63554 0.37274
lowerback -2.6553 1.34061 -3.49998
upperback -0.0824621 1.86669 2.02018
thorax 1.22468 0.909159 4.11189
lowerneck -22.3105 -4.89286 -12.8585
upperneck 21.3956 -5.65548 12.2359
head 11.3957 -2.13014 5.77981
rclavicle -1.74931e-014 -2.06736e-014
rhumerus -32.0349 19.2358 -86.2564
rradius 45.3383
rwrist -20.9742
rhand -31.7448 -28.6187
rfingers 7.12502
rthumb -5.00231 -58.5397
lclavicle -1.74931e-014 -2.06736e-014
lhumerus -50.3307 0.872069 83.9193
lradius 20.1957
lwrist -4.85287
lhand -9.75687 -22.733
lfingers 7.12502
lthumb 16.2178 6.60862
rfemur 1.16288 -2.33495 18.0183
rtibia 47.3971
rfoot 16.0208 1.94083
rtoes -7.3969
lfemur -35.1788 4.53049 -25.4508
ltibia 33.7836
lfoot -5.78701 3.62266
ltoes 1.4168
